<svg xmlns="http://www.w3.org/2000/svg" viewBox="0 0 200 200" id="check-rectangale">
  <path fill="#050b1e" d="M147.9241,42.2924a9.6911,9.6911,0,0,1,9.68,9.68v96.0547a9.6911,9.6911,0,0,1-9.68,9.68h-95.92a9.6911,9.6911,0,0,1-9.68-9.68V51.9726a9.6911,9.6911,0,0,1,9.68-9.68h95.92m0-13h-95.92a22.68,22.68,0,0,0-22.68,22.68v96.0547a22.68,22.68,0,0,0,22.68,22.68h95.92a22.68,22.68,0,0,0,22.68-22.68V51.9726a22.68,22.68,0,0,0-22.68-22.68Z"></path>
  <polyline fill="none" stroke="#050b1e" stroke-linecap="round" stroke-linejoin="round" stroke-width="13" points="76.26 104.229 89.117 117.276 123.668 82.724"></polyline>
</svg>
