<svg xmlns="http://www.w3.org/2000/svg" viewBox="0 0 32 32" id="tick">
  <path d="m27.52,12.63c-.16-.53-.71-.84-1.24-.68-.53.15-.83.71-.68,1.24.27.91.4,1.85.4,2.81,0,5.51-4.49,10-10,10s-10-4.49-10-10,4.49-10,10-10c1.58,0,3.1.36,4.5,1.07.49.25,1.1.05,1.34-.44.25-.49.05-1.09-.44-1.34-1.69-.85-3.5-1.28-5.41-1.28-6.62,0-12,5.38-12,12s5.38,12,12,12,12-5.38,12-12c0-1.15-.16-2.28-.48-3.37Z"></path>
  <path d="m16.06,16.29c-1.36-1.69-3.4-3.05-3.5-3.12-.46-.31-1.08-.18-1.39.28-.31.46-.18,1.08.28,1.39.77.52,2.94,2.17,3.66,3.62.16.31.46.52.8.55.03,0,.06,0,.09,0,.31,0,.61-.15.8-.4.06-.08,5.91-7.83,9.65-9.71.49-.25.69-.85.45-1.34s-.85-.69-1.34-.45c-3.28,1.64-7.66,6.87-9.49,9.19Z"></path>
</svg>
