<svg xmlns="http://www.w3.org/2000/svg" fill="none" viewBox="0 0 24 24">
  <g filter="url(#a)" fill="currentColor" transform="translate(-2, -2.5)">
    <path fill-opacity=".72"
      d="M6.49 21.1a2 2 0 0 1-1.52-1.94V8.84A2 2 0 0 1 6.49 6.9l1.62-.4a.73.73 0 0 1 .43 1.4l-1.52.57a1 1 0 0 0-.65.94v9.13a1 1 0 0 0 .65.94l1.5.57a.76.76 0 0 1-.44 1.45l-1.6-.4Z" />
    <path
      d="M9.95 14a.52.52 0 0 0 .25.44l5.65 3.48a.54.54 0 0 0 .74-.17.52.52 0 0 0 .08-.27V14.9h5.47c.5 0 .9-.4.9-.9v-.1a.9.9 0 0 0-.9-.8h-5.47v-2.58c0-.19-.1-.36-.28-.46a.55.55 0 0 0-.54.02l-5.65 3.48a.52.52 0 0 0-.25.44Z" />
  </g>
  <defs>
    <filter id="a" width="28" height="28" x="0" y=".4" color-interpolation-filters="sRGB" filterUnits="userSpaceOnUse">
      <feFlood flood-opacity="0" result="BackgroundImageFix" />
      <feColorMatrix in="SourceAlpha" result="hardAlpha" values="0 0 0 0 0 0 0 0 0 0 0 0 0 0 0 0 0 0 127 0" />
      <feOffset dy=".4" />
      <feGaussianBlur stdDeviation="1" />
      <feComposite in2="hardAlpha" operator="out" />
      <feColorMatrix values="0 0 0 0 0.184314 0 0 0 0 0.247059 0 0 0 0 0.309804 0 0 0 0.33 0" />
      <feBlend in2="BackgroundImageFix" result="effect1_dropShadow_43_813" />
      <feBlend in="SourceGraphic" in2="effect1_dropShadow_43_813" result="shape" />
    </filter>
  </defs>
</svg>
