<svg xmlns="http://www.w3.org/2000/svg" fill="none" viewBox="0 0 24 24">
  <g filter="url(#a)" fill="currentColor" transform="translate(-2, -2.5)">
    <path fill-opacity=".72"
      d="M6.9 6.48a2 2 0 0 1 1.94-1.52h10.32a2 2 0 0 1 1.94 1.52l.4 1.62a.73.73 0 0 1-1.4.44L19.54 7a1 1 0 0 0-.94-.65H9.46a1 1 0 0 0-.94.65l-.57 1.51a.76.76 0 0 1-1.45-.45l.4-1.59Z" />
    <path
      d="M14 9.94a.52.52 0 0 1 .44.25l3.48 5.65a.54.54 0 0 1-.18.75.52.52 0 0 1-.26.07l-2.58.01v5.46c0 .5-.4.9-.9.9h-.1a.9.9 0 0 1-.8-.9v-5.46h-2.58a.52.52 0 0 1-.46-.28.55.55 0 0 1 .02-.55l3.48-5.65a.52.52 0 0 1 .44-.25Z" />
  </g>
  <defs>
    <filter id="a" width="28" height="28" x="0" y=".4" color-interpolation-filters="sRGB" filterUnits="userSpaceOnUse">
      <feFlood flood-opacity="0" result="BackgroundImageFix" />
      <feColorMatrix in="SourceAlpha" result="hardAlpha" values="0 0 0 0 0 0 0 0 0 0 0 0 0 0 0 0 0 0 127 0" />
      <feOffset dy=".4" />
      <feGaussianBlur stdDeviation="1" />
      <feComposite in2="hardAlpha" operator="out" />
      <feColorMatrix values="0 0 0 0 0.184314 0 0 0 0 0.247059 0 0 0 0 0.309804 0 0 0 0.33 0" />
      <feBlend in2="BackgroundImageFix" result="effect1_dropShadow_43_811" />
      <feBlend in="SourceGraphic" in2="effect1_dropShadow_43_811" result="shape" />
    </filter>
  </defs>
</svg>
