<svg xmlns="http://www.w3.org/2000/svg" fill="none" viewBox="0 0 24 24">
  <g fill="currentColor">
    <path fill-rule="evenodd"
      d="M9.05 2c.93-.01 1.8.42 2.37 1.15l.88 1.17c.28.35.7.56 1.15.56h3.07c3.69 0 5.49 1.97 5.48 6.01v4.87c0 3.86-2.38 6.24-6.25 6.24H8.24C4.39 22 2 19.62 2 15.75V8.24c0-1.33.19-2.45.57-3.36C3.37 2.97 5 2 7.47 2h1.58Zm6.94 10.16a.75.75 0 0 0-.75.75v1.88h-1.87a.74.74 0 0 0-.75.75c0 .41.33.75.75.75h1.87v1.88c0 .41.34.75.75.75a.74.74 0 0 0 .75-.75V16.3h1.89a.75.75 0 0 0 .69-1.04.74.74 0 0 0-.69-.46h-1.89v-1.88a.74.74 0 0 0-.75-.75Z"
      clip-rule="evenodd" />
    <path
      d="M10.92 2.66A2.67 2.67 0 0 0 9.08 2H7.5c-2.47 0-4.1.97-4.9 2.88h10.79s-.6-.02-.97-.43c-.37-.4-.85-1.26-1.5-1.79Z" />
  </g>
</svg>
