<svg xmlns="http://www.w3.org/2000/svg" fill="none" viewBox="0 0 24 24">
  <g fill="currentColor">
    <path fill-rule="evenodd"
      d="m12.85 14.78 2.57-3.32-.03.02a.67.67 0 0 0-.48-1.06.68.68 0 0 0-.62.28l-2.15 2.78-2.46-1.94a.7.7 0 0 0-.5-.14.69.69 0 0 0-.45.26L6.1 15.1l-.06.08a.66.66 0 0 0 .19.84c.12.08.26.14.4.14.21 0 .4-.1.53-.27L9.4 13l2.54 1.9.08.05c.28.15.64.08.84-.18Zm1.89-9.76a3.61 3.61 0 0 0 4.21 4.22v7.17c0 3.02-1.78 4.8-4.8 4.8H7.58c-3.02 0-4.8-1.78-4.8-4.8V9.83c0-3.02 1.78-4.81 4.8-4.81h7.16Z"
      clip-rule="evenodd" />
    <path fill-opacity=".8" d="M18.42 3.43a2.15 2.15 0 1 0 0 4.3 2.15 2.15 0 0 0 0-4.3Z" />
  </g>
</svg>
